<svg xmlns="http://www.w3.org/2000/svg" viewBox="0 0 48 48" role="img" aria-labelledby="title">
  <title>Google</title>
  <path fill="#FFC107" d="M43.61 20.08H42V20H24v8h11.3A12 12 0 1 1 31.9 14.1l5.66-5.66A20 20 0 1 0 44 24c0-1.34-.14-2.65-.39-3.92Z"/>
  <path fill="#FF3D00" d="m6.31 14.69 6.57 4.82A12 12 0 0 1 31.9 14.1l5.66-5.66A20 20 0 0 0 6.31 14.69Z"/>
  <path fill="#4CAF50" d="M24 44c5.17 0 9.86-1.98 13.41-5.19l-6.16-5.21A11.92 11.92 0 0 1 12.92 28.5l-6.52 5.02A20 20 0 0 0 24 44Z"/>
  <path fill="#1976D2" d="M43.61 20.08H42V20H24v8h11.3a12.04 12.04 0 0 1-4.05 5.6l6.16 5.21C37 39.19 44 34 44 24c0-1.34-.14-2.65-.39-3.92Z"/>
</svg>
